<?xml version="1.0" encoding="UTF-8"?>
<svg id="_Слой_1" data-name="Слой_1" xmlns="http://www.w3.org/2000/svg" version="1.1" xmlns:xlink="http://www.w3.org/1999/xlink" viewBox="0 0 1176 870">
  <!-- Generator: Adobe Illustrator 29.1.0, SVG Export Plug-In . SVG Version: 2.1.0 Build 142)  -->
  <defs>
    <style>
      .st0 {
        fill: url(#_Безымянный_градиент_22);
      }

      .st1 {
        stroke: url(#_Безымянный_градиент_41);
      }

      .st1, .st2, .st3, .st4, .st5, .st6, .st7, .st8, .st9, .st10 {
        fill: none;
      }

      .st11 {
        fill: url(#_Безымянный_градиент_15);
      }

      .st12 {
        fill: url(#_Безымянный_градиент_4);
      }

      .st13 {
        fill: url(#_Безымянный_градиент_12);
      }

      .st14 {
        fill: url(#_Безымянный_градиент_23);
        fill-opacity: .2;
      }

      .st15 {
        fill: url(#_Безымянный_градиент_21);
      }

      .st16 {
        fill: url(#_Безымянный_градиент_5);
      }

      .st2 {
        stroke: url(#_Безымянный_градиент_30);
      }

      .st17 {
        fill: url(#_Безымянный_градиент_33);
      }

      .st18 {
        fill: #fff;
      }

      .st19 {
        fill: url(#_Безымянный_градиент_42);
      }

      .st20 {
        fill: url(#_Безымянный_градиент_14);
      }

      .st21 {
        fill: url(#_Безымянный_градиент_43);
      }

      .st22 {
        fill: url(#_Безымянный_градиент_7);
      }

      .st23 {
        fill: url(#_Безымянный_градиент_24);
      }

      .st24 {
        fill: url(#_Безымянный_градиент_17);
      }

      .st25 {
        fill: url(#_Безымянный_градиент_32);
      }

      .st26 {
        fill: url(#_Безымянный_градиент_20);
      }

      .st27 {
        fill: url(#_Безымянный_градиент_37);
      }

      .st4 {
        stroke: url(#_Безымянный_градиент_35);
      }

      .st28 {
        fill: url(#_Безымянный_градиент_16);
      }

      .st5 {
        stroke: url(#_Безымянный_градиент_26);
      }

      .st29 {
        fill: url(#_Безымянный_градиент_18);
      }

      .st6 {
        stroke: url(#_Безымянный_градиент_36);
      }

      .st30 {
        fill: url(#_Безымянный_градиент_9);
      }

      .st31 {
        fill: url(#_Безымянный_градиент_11);
      }

      .st32 {
        fill: url(#_Безымянный_градиент_10);
      }

      .st33 {
        fill: url(#_Безымянный_градиент_2);
      }

      .st7 {
        stroke: url(#_Безымянный_градиент_40);
      }

      .st34 {
        fill: url(#_Безымянный_градиент_34);
      }

      .st35 {
        fill: url(#_Безымянный_градиент_19);
      }

      .st8 {
        stroke: url(#_Безымянный_градиент_25);
      }

      .st36 {
        fill: url(#_Безымянный_градиент_39);
      }

      .st37 {
        fill: url(#_Безымянный_градиент);
      }

      .st9 {
        stroke: #ee49fd;
      }

      .st38 {
        fill: url(#_Безымянный_градиент_29);
      }

      .st39 {
        fill: url(#_Безымянный_градиент_28);
      }

      .st40 {
        fill: url(#_Безымянный_градиент_13);
      }

      .st41 {
        fill: url(#_Безымянный_градиент_8);
      }

      .st42 {
        fill: url(#_Безымянный_градиент_38);
      }

      .st43 {
        fill: url(#_Безымянный_градиент_3);
      }

      .st44 {
        fill: url(#_Безымянный_градиент_27);
      }

      .st10 {
        stroke: url(#_Безымянный_градиент_31);
      }

      .st45 {
        fill: url(#_Безымянный_градиент_6);
      }
    </style>
    <clipPath id="clippath">
      <polygon class="st3" points="460.5 737.9 625.6 642.5 790.7 737.9 625.6 833.2 460.5 737.9"/>
    </clipPath>
    <linearGradient id="_Безымянный_градиент" data-name="Безымянный градиент" x1="134.6" y1="843.8" x2="379.4" y2="1088.5" gradientTransform="translate(1239.7 1323.3) rotate(-30) scale(1 -.9) skewX(-26.6)" gradientUnits="userSpaceOnUse">
      <stop offset="0" stop-color="#ee49fd"/>
      <stop offset="1" stop-color="#6157ff"/>
    </linearGradient>
    <linearGradient id="_Безымянный_градиент_2" data-name="Безымянный градиент 2" x1="431.8" y1="74" x2="832" y2="83.2" gradientTransform="translate(0 867.9) scale(1 -1)" gradientUnits="userSpaceOnUse">
      <stop offset="0" stop-color="#ee49fd"/>
      <stop offset="1" stop-color="#2700f6"/>
    </linearGradient>
    <clipPath id="clippath-3">
      <polygon class="st3" points="460.5 700.3 625.6 605 790.7 700.3 625.6 795.6 460.5 700.3"/>
    </clipPath>
    <linearGradient id="_Безымянный_градиент_3" data-name="Безымянный градиент 3" x1="134.6" y1="843.8" x2="379.4" y2="1088.5" gradientTransform="translate(1239.7 1285.8) rotate(-30) scale(1 -.9) skewX(-26.6)" gradientUnits="userSpaceOnUse">
      <stop offset="0" stop-color="#ee49fd"/>
      <stop offset="1" stop-color="#6157ff"/>
    </linearGradient>
    <linearGradient id="_Безымянный_градиент_4" data-name="Безымянный градиент 4" x1="431.8" y1="111.5" x2="832" y2="120.7" gradientTransform="translate(0 867.9) scale(1 -1)" gradientUnits="userSpaceOnUse">
      <stop offset="0" stop-color="#ee49fd"/>
      <stop offset="1" stop-color="#2700f6"/>
    </linearGradient>
    <clipPath id="clippath-6">
      <polygon class="st3" points="460.5 663.7 625.6 568.4 790.7 663.7 625.6 759 460.5 663.7"/>
    </clipPath>
    <linearGradient id="_Безымянный_градиент_5" data-name="Безымянный градиент 5" x1="134.6" y1="843.8" x2="379.4" y2="1088.5" gradientTransform="translate(1239.7 1249.1) rotate(-30) scale(1 -.9) skewX(-26.6)" gradientUnits="userSpaceOnUse">
      <stop offset="0" stop-color="#ee49fd"/>
      <stop offset="1" stop-color="#6157ff"/>
    </linearGradient>
    <linearGradient id="_Безымянный_градиент_6" data-name="Безымянный градиент 6" x1="431.8" y1="148.2" x2="832" y2="157.4" gradientTransform="translate(0 867.9) scale(1 -1)" gradientUnits="userSpaceOnUse">
      <stop offset="0" stop-color="#ee49fd"/>
      <stop offset="1" stop-color="#2700f6"/>
    </linearGradient>
    <clipPath id="clippath-9">
      <polygon class="st3" points="460.5 626.3 625.6 531 790.7 626.3 625.6 721.7 460.5 626.3"/>
    </clipPath>
    <linearGradient id="_Безымянный_градиент_7" data-name="Безымянный градиент 7" x1="134.6" y1="843.8" x2="379.4" y2="1088.5" gradientTransform="translate(1239.7 1211.8) rotate(-30) scale(1 -.9) skewX(-26.6)" gradientUnits="userSpaceOnUse">
      <stop offset="0" stop-color="#ee49fd"/>
      <stop offset="1" stop-color="#6157ff"/>
    </linearGradient>
    <linearGradient id="_Безымянный_градиент_8" data-name="Безымянный градиент 8" x1="431.8" y1="185.5" x2="832" y2="194.7" gradientTransform="translate(0 867.9) scale(1 -1)" gradientUnits="userSpaceOnUse">
      <stop offset="0" stop-color="#ee49fd"/>
      <stop offset="1" stop-color="#2700f6"/>
    </linearGradient>
    <clipPath id="clippath-12">
      <polygon class="st3" points="460.5 589 625.6 493.7 790.7 589 625.6 684.4 460.5 589"/>
    </clipPath>
    <linearGradient id="_Безымянный_градиент_9" data-name="Безымянный градиент 9" x1="134.6" y1="843.8" x2="379.4" y2="1088.5" gradientTransform="translate(1239.7 1174.5) rotate(-30) scale(1 -.9) skewX(-26.6)" gradientUnits="userSpaceOnUse">
      <stop offset="0" stop-color="#ee49fd"/>
      <stop offset="1" stop-color="#6157ff"/>
    </linearGradient>
    <linearGradient id="_Безымянный_градиент_10" data-name="Безымянный градиент 10" x1="431.8" y1="222.8" x2="832" y2="232" gradientTransform="translate(0 867.9) scale(1 -1)" gradientUnits="userSpaceOnUse">
      <stop offset="0" stop-color="#ee49fd"/>
      <stop offset="1" stop-color="#2700f6"/>
    </linearGradient>
    <clipPath id="clippath-15">
      <polygon class="st3" points="461.5 552.8 626.3 457.5 791.1 552.8 626.3 648.1 461.5 552.8"/>
    </clipPath>
    <linearGradient id="_Безымянный_градиент_11" data-name="Безымянный градиент 11" x1="134.6" y1="844.1" x2="379" y2="1088.5" gradientTransform="translate(1240.5 1139) rotate(-30) scale(1 -.9) skewX(-26.5)" gradientUnits="userSpaceOnUse">
      <stop offset="0" stop-color="#ee49fd"/>
      <stop offset="1" stop-color="#6157ff"/>
    </linearGradient>
    <linearGradient id="_Безымянный_градиент_12" data-name="Безымянный градиент 12" x1="432.9" y1="259" x2="832.4" y2="268.2" gradientTransform="translate(0 867.9) scale(1 -1)" gradientUnits="userSpaceOnUse">
      <stop offset="0" stop-color="#ee49fd"/>
      <stop offset="1" stop-color="#2700f6"/>
    </linearGradient>
    <clipPath id="clippath-18">
      <polygon class="st3" points="21.6 300.3 186.7 205 351.8 300.3 186.7 395.6 21.6 300.3"/>
    </clipPath>
    <linearGradient id="_Безымянный_градиент_13" data-name="Безымянный градиент 13" x1="134.6" y1="843.8" x2="379.4" y2="1088.5" gradientTransform="translate(800.8 885.8) rotate(-30) scale(1 -.9) skewX(-26.6)" gradientUnits="userSpaceOnUse">
      <stop offset="0" stop-color="#ee49fd"/>
      <stop offset="1" stop-color="#6157ff"/>
    </linearGradient>
    <linearGradient id="_Безымянный_градиент_14" data-name="Безымянный градиент 14" x1="-7.1" y1="511.5" x2="393.1" y2="520.7" gradientTransform="translate(0 867.9) scale(1 -1)" gradientUnits="userSpaceOnUse">
      <stop offset="0" stop-color="#ee49fd"/>
      <stop offset="1" stop-color="#2700f6"/>
    </linearGradient>
    <clipPath id="clippath-21">
      <polygon class="st3" points="372.6 224.1 577.2 106 781.8 224.1 577.2 342.2 372.6 224.1"/>
    </clipPath>
    <linearGradient id="_Безымянный_градиент_15" data-name="Безымянный градиент 15" x1="134.4" y1="797.9" x2="437.8" y2="1101.3" gradientTransform="translate(1151.8 809.6) rotate(-30) scale(1 -.9) skewX(-26.6)" gradientUnits="userSpaceOnUse">
      <stop offset="0" stop-color="#ee49fd"/>
      <stop offset="1" stop-color="#6157ff"/>
    </linearGradient>
    <linearGradient id="_Безымянный_градиент_16" data-name="Безымянный градиент 16" x1="337" y1="574.3" x2="833" y2="585.7" gradientTransform="translate(0 867.9) scale(1 -1)" gradientUnits="userSpaceOnUse">
      <stop offset="0" stop-color="#ee49fd"/>
      <stop offset="1" stop-color="#2700f6"/>
    </linearGradient>
    <clipPath id="clippath-24">
      <polygon class="st3" points="20.6 262.3 185.7 167 350.8 262.3 185.7 357.6 20.6 262.3"/>
    </clipPath>
    <linearGradient id="_Безымянный_градиент_17" data-name="Безымянный градиент 17" x1="134.6" y1="843.8" x2="379.4" y2="1088.5" gradientTransform="translate(799.8 847.8) rotate(-30) scale(1 -.9) skewX(-26.6)" gradientUnits="userSpaceOnUse">
      <stop offset="0" stop-color="#ee49fd"/>
      <stop offset="1" stop-color="#6157ff"/>
    </linearGradient>
    <linearGradient id="_Безымянный_градиент_18" data-name="Безымянный градиент 18" x1="-8.1" y1="549.5" x2="392.1" y2="558.7" gradientTransform="translate(0 867.9) scale(1 -1)" gradientUnits="userSpaceOnUse">
      <stop offset="0" stop-color="#ee49fd"/>
      <stop offset="1" stop-color="#2700f6"/>
    </linearGradient>
    <clipPath id="clippath-27">
      <polygon class="st3" points="822.6 386.3 987.7 291 1152.8 386.3 987.7 481.6 822.6 386.3"/>
    </clipPath>
    <linearGradient id="_Безымянный_градиент_19" data-name="Безымянный градиент 19" x1="134.6" y1="843.8" x2="379.4" y2="1088.5" gradientTransform="translate(1601.8 971.8) rotate(-30) scale(1 -.9) skewX(-26.6)" gradientUnits="userSpaceOnUse">
      <stop offset="0" stop-color="#ee49fd"/>
      <stop offset="1" stop-color="#6157ff"/>
    </linearGradient>
    <linearGradient id="_Безымянный_градиент_20" data-name="Безымянный градиент 20" x1="793.9" y1="425.5" x2="1194.1" y2="434.7" gradientTransform="translate(0 867.9) scale(1 -1)" gradientUnits="userSpaceOnUse">
      <stop offset="0" stop-color="#ee49fd"/>
      <stop offset="1" stop-color="#2700f6"/>
    </linearGradient>
    <clipPath id="clippath-30">
      <polygon class="st3" points="461.1 514.9 626.2 419.6 791.3 514.9 626.2 610.2 461.1 514.9"/>
    </clipPath>
    <linearGradient id="_Безымянный_градиент_21" data-name="Безымянный градиент 21" x1="134.6" y1="843.8" x2="379.4" y2="1088.5" gradientTransform="translate(1240.4 1100.3) rotate(-30) scale(1 -.9) skewX(-26.6)" gradientUnits="userSpaceOnUse">
      <stop offset="0" stop-color="#ee49fd"/>
      <stop offset="1" stop-color="#6157ff"/>
    </linearGradient>
    <linearGradient id="_Безымянный_градиент_22" data-name="Безымянный градиент 22" x1="432.4" y1="297" x2="832.6" y2="306.2" gradientTransform="translate(0 867.9) scale(1 -1)" gradientUnits="userSpaceOnUse">
      <stop offset="0" stop-color="#ee49fd"/>
      <stop offset="1" stop-color="#2700f6"/>
    </linearGradient>
    <linearGradient id="_Безымянный_градиент_23" data-name="Безымянный градиент 23" x1="1558.3" y1="-268" x2="496" y2="302.3" gradientTransform="translate(0 867.9) scale(1 -1)" gradientUnits="userSpaceOnUse">
      <stop offset=".8" stop-color="#ee49fd"/>
      <stop offset="1" stop-color="#2700f6"/>
    </linearGradient>
    <linearGradient id="_Безымянный_градиент_24" data-name="Безымянный градиент 24" x1="567.8" y1="718.8" x2="584.1" y2="601.4" gradientTransform="translate(0 867.9) scale(1 -1)" gradientUnits="userSpaceOnUse">
      <stop offset=".3" stop-color="#ee49fd"/>
      <stop offset=".8" stop-color="#2700f6" stop-opacity="0"/>
    </linearGradient>
    <linearGradient id="_Безымянный_градиент_25" data-name="Безымянный градиент 25" x1="577.4" y1="720.1" x2="577.4" y2="578" gradientTransform="translate(0 867.9) scale(1 -1)" gradientUnits="userSpaceOnUse">
      <stop offset="0" stop-color="#fff"/>
      <stop offset=".3" stop-color="#666" stop-opacity="0"/>
    </linearGradient>
    <linearGradient id="_Безымянный_градиент_26" data-name="Безымянный градиент 26" x1="577.7" y1="867.9" x2="575" y2="568.8" gradientTransform="translate(0 867.9) scale(1 -1)" gradientUnits="userSpaceOnUse">
      <stop offset="0" stop-color="#999" stop-opacity="0"/>
      <stop offset="1" stop-color="#fff"/>
    </linearGradient>
    <linearGradient id="_Безымянный_градиент_27" data-name="Безымянный градиент 27" x1="577.7" y1="867.5" x2="577.7" y2="487" gradientTransform="translate(0 867.9) scale(1 -1)" gradientUnits="userSpaceOnUse">
      <stop offset="0" stop-color="#434343" stop-opacity="0"/>
      <stop offset=".9" stop-color="#2700f6"/>
    </linearGradient>
    <linearGradient id="_Безымянный_градиент_28" data-name="Безымянный градиент 28" x1="577.7" y1="867.5" x2="577.7" y2="487" gradientTransform="translate(0 867.9) scale(1 -1)" gradientUnits="userSpaceOnUse">
      <stop offset="0" stop-color="#434343" stop-opacity="0"/>
      <stop offset=".9" stop-color="#2700f6"/>
    </linearGradient>
    <linearGradient id="_Безымянный_градиент_29" data-name="Безымянный градиент 29" x1="617.7" y1="413" x2="631.6" y2="313.2" gradientTransform="translate(0 867.9) scale(1 -1)" gradientUnits="userSpaceOnUse">
      <stop offset=".3" stop-color="#ee49fd"/>
      <stop offset=".8" stop-color="#2700f6" stop-opacity="0"/>
    </linearGradient>
    <linearGradient id="_Безымянный_градиент_30" data-name="Безымянный градиент 30" x1="626" y1="414.2" x2="626" y2="293.2" gradientTransform="translate(0 867.9) scale(1 -1)" gradientUnits="userSpaceOnUse">
      <stop offset="0" stop-color="#fff"/>
      <stop offset=".3" stop-color="#666" stop-opacity="0"/>
    </linearGradient>
    <linearGradient id="_Безымянный_градиент_31" data-name="Безымянный градиент 31" x1="626.1" y1="539.9" x2="624.1" y2="285.4" gradientTransform="translate(0 867.9) scale(1 -1)" gradientUnits="userSpaceOnUse">
      <stop offset="0" stop-color="#999" stop-opacity="0"/>
      <stop offset="1" stop-color="#fff"/>
    </linearGradient>
    <linearGradient id="_Безымянный_градиент_32" data-name="Безымянный градиент 32" x1="626.2" y1="539.6" x2="626.2" y2="215.9" gradientTransform="translate(0 867.9) scale(1 -1)" gradientUnits="userSpaceOnUse">
      <stop offset="0" stop-color="#434343" stop-opacity="0"/>
      <stop offset=".9" stop-color="#2700f6"/>
    </linearGradient>
    <linearGradient id="_Безымянный_градиент_33" data-name="Безымянный градиент 33" x1="626.2" y1="539.6" x2="626.2" y2="215.9" gradientTransform="translate(0 867.9) scale(1 -1)" gradientUnits="userSpaceOnUse">
      <stop offset="0" stop-color="#434343" stop-opacity="0"/>
      <stop offset=".9" stop-color="#2700f6"/>
    </linearGradient>
    <linearGradient id="_Безымянный_градиент_34" data-name="Безымянный градиент 34" x1="978.7" y1="543" x2="992.6" y2="443.2" gradientTransform="translate(0 867.9) scale(1 -1)" gradientUnits="userSpaceOnUse">
      <stop offset=".3" stop-color="#ee49fd"/>
      <stop offset=".8" stop-color="#2700f6" stop-opacity="0"/>
    </linearGradient>
    <linearGradient id="_Безымянный_градиент_35" data-name="Безымянный градиент 35" x1="987" y1="544.2" x2="987" y2="423.2" gradientTransform="translate(0 867.9) scale(1 -1)" gradientUnits="userSpaceOnUse">
      <stop offset="0" stop-color="#fff"/>
      <stop offset=".3" stop-color="#666" stop-opacity="0"/>
    </linearGradient>
    <linearGradient id="_Безымянный_градиент_36" data-name="Безымянный градиент 36" x1="987.1" y1="669.9" x2="985.1" y2="415.4" gradientTransform="translate(0 867.9) scale(1 -1)" gradientUnits="userSpaceOnUse">
      <stop offset="0" stop-color="#999" stop-opacity="0"/>
      <stop offset="1" stop-color="#fff"/>
    </linearGradient>
    <linearGradient id="_Безымянный_градиент_37" data-name="Безымянный градиент 37" x1="987.2" y1="669.6" x2="987.2" y2="345.9" gradientTransform="translate(0 867.9) scale(1 -1)" gradientUnits="userSpaceOnUse">
      <stop offset="0" stop-color="#434343" stop-opacity="0"/>
      <stop offset=".9" stop-color="#2700f6"/>
    </linearGradient>
    <linearGradient id="_Безымянный_градиент_38" data-name="Безымянный градиент 38" x1="987.2" y1="669.6" x2="987.2" y2="345.9" gradientTransform="translate(0 867.9) scale(1 -1)" gradientUnits="userSpaceOnUse">
      <stop offset="0" stop-color="#434343" stop-opacity="0"/>
      <stop offset=".9" stop-color="#2700f6"/>
    </linearGradient>
    <linearGradient id="_Безымянный_градиент_39" data-name="Безымянный градиент 39" x1="176.7" y1="667" x2="190.6" y2="567.2" gradientTransform="translate(0 867.9) scale(1 -1)" gradientUnits="userSpaceOnUse">
      <stop offset=".3" stop-color="#ee49fd"/>
      <stop offset=".8" stop-color="#2700f6" stop-opacity="0"/>
    </linearGradient>
    <linearGradient id="_Безымянный_градиент_40" data-name="Безымянный градиент 40" x1="185" y1="668.2" x2="185" y2="547.2" gradientTransform="translate(0 867.9) scale(1 -1)" gradientUnits="userSpaceOnUse">
      <stop offset="0" stop-color="#fff"/>
      <stop offset=".3" stop-color="#666" stop-opacity="0"/>
    </linearGradient>
    <linearGradient id="_Безымянный_градиент_41" data-name="Безымянный градиент 41" x1="185.1" y1="793.9" x2="183.1" y2="539.4" gradientTransform="translate(0 867.9) scale(1 -1)" gradientUnits="userSpaceOnUse">
      <stop offset="0" stop-color="#999" stop-opacity="0"/>
      <stop offset="1" stop-color="#fff"/>
    </linearGradient>
    <linearGradient id="_Безымянный_градиент_42" data-name="Безымянный градиент 42" x1="185.2" y1="793.6" x2="185.2" y2="469.9" gradientTransform="translate(0 867.9) scale(1 -1)" gradientUnits="userSpaceOnUse">
      <stop offset="0" stop-color="#434343" stop-opacity="0"/>
      <stop offset=".9" stop-color="#2700f6"/>
    </linearGradient>
    <linearGradient id="_Безымянный_градиент_43" data-name="Безымянный градиент 43" x1="185.2" y1="793.6" x2="185.2" y2="469.9" gradientTransform="translate(0 867.9) scale(1 -1)" gradientUnits="userSpaceOnUse">
      <stop offset="0" stop-color="#434343" stop-opacity="0"/>
      <stop offset=".9" stop-color="#2700f6"/>
    </linearGradient>
  </defs>
  <path class="st9" d="M533.6,309l-367,211.9-37,21.4c-37.3,21.6-37.3,75.4,0,97l289.5,167.1c25.7,14.8,57.3,14.8,83,0l41-23.7"/>
  <path class="st9" d="M853.5,329.9l-212.4,122.6-75.3,43.5,230.6,133.1c14.9,8.6,33.1,8.6,48,0l257.2-148.5c9.3-5.4,9.3-18.9,0-24.2l-219.1-126.5c-9-5.2-20-5.2-29,0Z"/>
  <polygon class="st37" points="460.5 737.9 625.6 642.5 790.7 737.9 625.6 833.2 460.5 737.9"/>
  <path class="st33" d="M460.5,749.5v-11.6l164.6,94.9,165.5-94.9v11.4l-165.5,95.6-164.6-95.4Z"/>
  <polygon class="st43" points="460.5 700.3 625.6 605 790.7 700.3 625.6 795.6 460.5 700.3"/>
  <path class="st12" d="M460.5,711.9v-11.6l164.6,94.9,165.5-94.9v11.4l-165.5,95.6-164.6-95.4Z"/>
  <polygon class="st16" points="460.5 663.7 625.6 568.4 790.7 663.7 625.6 759 460.5 663.7"/>
  <path class="st45" d="M460.5,675.3v-11.6l164.6,94.9,165.5-94.9v11.4l-165.5,95.6-164.6-95.4Z"/>
  <polygon class="st22" points="460.5 626.3 625.6 531 790.7 626.3 625.6 721.7 460.5 626.3"/>
  <path class="st41" d="M460.5,638v-11.6l164.6,94.9,165.5-94.9v11.4l-165.5,95.6-164.6-95.4Z"/>
  <polygon class="st30" points="460.5 589 625.6 493.7 790.7 589 625.6 684.4 460.5 589"/>
  <path class="st32" d="M460.5,600.7v-11.6l164.6,94.9,165.5-94.9v11.4l-165.5,95.6-164.6-95.4Z"/>
  <polygon class="st31" points="461.5 552.8 626.3 457.5 791.1 552.8 626.3 648.1 461.5 552.8"/>
  <path class="st13" d="M461.5,564.5v-11.6l164.4,94.9,165.2-94.9v11.4l-165.2,95.6-164.4-95.4Z"/>
  <path class="st9" d="M509.6,286.5l-149,86c-22.9,13.2-51.1,13.2-74,0l-52-30"/>
  <polygon class="st40" points="21.6 300.3 186.7 205 351.8 300.3 186.7 395.6 21.6 300.3"/>
  <path class="st20" d="M21.6,312.4v-12.1l164.6,94.9,165-94.7v11.5l-165,95.3L21.6,312.4Z"/>
  <polygon class="st11" points="372.6 224.1 577.2 106 781.8 224.1 577.2 342.2 372.6 224.1"/>
  <path class="st28" d="M372.6,238.5v-14.4l204,117.6,205.1-117.6v14.3l-205.1,118.3-204-118.2Z"/>
  <polygon class="st24" points="20.6 262.3 185.7 167 350.8 262.3 185.7 357.6 20.6 262.3"/>
  <path class="st29" d="M20.6,274.4v-12.1l164.6,94.9,165.5-94.9v11.4l-165.5,95.6L20.6,274.4Z"/>
  <polygon class="st35" points="822.6 386.3 987.7 291 1152.8 386.3 987.7 481.6 822.6 386.3"/>
  <path class="st26" d="M822.6,397.9v-11.6l164.6,94.9,165.5-94.9v11.4l-165.5,95.6-164.6-95.4Z"/>
  <polygon class="st15" points="461.1 514.9 626.2 419.6 791.3 514.9 626.2 610.2 461.1 514.9"/>
  <path class="st0" d="M461.1,526.5v-11.6l164.6,94.9,165.5-94.9v11.4l-165.5,95.6-164.6-95.4Z"/>
  <path class="st14" d="M460.5,737.9l.6-211.3,164.6,95.4,165.5-95.6-.6,211.6-165.5,94.9-164.6-94.9Z"/>
  <g>
    <path class="st23" d="M453.6,218.8l123.8-71.1,123.8,71.1-123.8,71.1-123.8-71.1Z" shape-rendering="crispEdges"/>
    <path class="st8" d="M700.3,218.8l-122.8,70.5-122.8-70.5,122.8-70.5,122.8,70.5Z" shape-rendering="crispEdges"/>
  </g>
  <path class="st5" d="M577,148.5V0"/>
  <path class="st44" d="M701.2.4h-247.3v218.5l124.6,72.3,123.1-71-.4-219.8Z"/>
  <path class="st39" d="M701.2.4h-247.3v218.5l124.6,72.3,123.1-71-.4-219.8Z"/>
  <g>
    <path class="st38" d="M520.6,514.2l105.4-60.5,105.4,60.5-105.4,60.5-105.4-60.5Z" shape-rendering="crispEdges"/>
    <path class="st2" d="M730.3,514.2l-104.4,59.9-104.4-59.9,104.4-59.9,104.4,59.9Z" shape-rendering="crispEdges"/>
  </g>
  <path class="st10" d="M625.6,454.3v-126.3"/>
  <path class="st25" d="M731.3,328.3h-210.4v185.9l106,61.5,104.8-60.4-.3-187Z"/>
  <path class="st17" d="M731.3,328.3h-210.4v185.9l106,61.5,104.8-60.4-.3-187Z"/>
  <g>
    <path class="st34" d="M881.6,384.2l105.4-60.5,105.4,60.5-105.4,60.5-105.4-60.5Z" shape-rendering="crispEdges"/>
    <path class="st4" d="M1091.3,384.2l-104.4,59.9-104.4-59.9,104.4-59.9,104.4,59.9Z" shape-rendering="crispEdges"/>
  </g>
  <path class="st6" d="M986.6,324.3v-126.3"/>
  <path class="st27" d="M1092.3,198.3h-210.4v185.9l106,61.5,104.8-60.4-.3-187Z"/>
  <path class="st42" d="M1092.3,198.3h-210.4v185.9l106,61.5,104.8-60.4-.3-187Z"/>
  <g>
    <path class="st36" d="M79.6,260.2l105.4-60.5,105.4,60.5-105.4,60.5-105.4-60.5Z" shape-rendering="crispEdges"/>
    <path class="st7" d="M289.3,260.2l-104.4,59.9-104.4-59.9,104.4-59.9,104.4,59.9Z" shape-rendering="crispEdges"/>
  </g>
  <path class="st1" d="M184.6,200.3v-126.3"/>
  <path class="st19" d="M290.3,74.3H79.8v185.9l106,61.5,104.8-60.4-.3-187Z"/>
  <path class="st21" d="M290.3,74.3H79.8v185.9l106,61.5,104.8-60.4-.3-187Z"/>
  <circle class="st18" cx="491.9" cy="102.4" r="5.2"/>
  <circle class="st18" cx="540.7" cy="39.7" r="5.2"/>
  <circle class="st18" cx="625.7" cy="108" r="5.2"/>
  <circle class="st18" cx="687.8" cy="22.2" r="5.2"/>
  <circle class="st18" cx="677.7" cy="152.2" r="2.8"/>
  <circle class="st18" cx="480.4" cy="50.5" r="2.8"/>
  <circle class="st18" cx="553.2" cy="415.1" r="4.4"/>
  <circle class="st18" cx="594.7" cy="361.7" r="4.4"/>
  <circle class="st18" cx="667.1" cy="419.9" r="4.4"/>
  <circle class="st18" cx="719.9" cy="346.9" r="4.4"/>
  <circle class="st18" cx="711.2" cy="457.5" r="2.4"/>
  <circle class="st18" cx="543.4" cy="370.9" r="2.4"/>
  <circle class="st18" cx="914.2" cy="285.1" r="4.4"/>
  <circle class="st18" cx="955.7" cy="231.7" r="4.4"/>
  <circle class="st18" cx="1028.1" cy="289.9" r="4.4" transform="translate(366.8 1128.7) rotate(-67.5)"/>
  <circle class="st18" cx="1080.8" cy="216.9" r="4.4"/>
  <circle class="st18" cx="1072.2" cy="327.5" r="2.4"/>
  <circle class="st18" cx="904.4" cy="240.9" r="2.4"/>
  <circle class="st18" cx="112.2" cy="161.1" r="4.4"/>
  <circle class="st18" cx="153.7" cy="107.7" r="4.4"/>
  <circle class="st18" cx="226.1" cy="165.9" r="4.4"/>
  <circle class="st18" cx="278.9" cy="92.9" r="4.4"/>
  <circle class="st18" cx="270.2" cy="203.5" r="2.4"/>
  <circle class="st18" cx="102.4" cy="116.9" r="2.4"/>
  <g>
    <polygon class="st18" points="596.6 439.2 658.5 475 658.5 493.7 596.6 458 596.6 439.2"/>
    <path class="st18" d="M598.2,419.7c9.7,5.6,17.6,19,17.6,29.8s-7.9,15.1-17.6,9.5-17.6-19-17.6-29.8,7.9-15.1,17.6-9.5Z"/>
    <path class="st18" d="M658,454.1c9.7,5.6,17.6,19,17.6,29.8s-7.9,15.1-17.6,9.5-17.6-19-17.6-29.8,7.9-15.1,17.6-9.5Z"/>
    <path class="st18" d="M627.7,413.2c14.1,8.1,25.5,27.5,25.5,43.2s-11.4,21.8-25.5,13.7-25.5-27.5-25.5-43.2,11.4-21.8,25.5-13.7Z"/>
  </g>
  <g>
    <polygon class="st18" points="541.5 132.2 603.4 168 603.4 186.8 541.5 151 541.5 132.2"/>
    <path class="st18" d="M543.2,112.7c9.7,5.6,17.6,19,17.6,29.8s-7.9,15.1-17.6,9.5-17.6-19-17.6-29.8,7.9-15.1,17.6-9.5Z"/>
    <path class="st18" d="M602.9,147.2c9.7,5.6,17.6,19,17.6,29.8s-7.9,15.1-17.6,9.5-17.6-19-17.6-29.8,7.9-15.1,17.6-9.5Z"/>
    <path class="st18" d="M572.6,106.2c14.1,8.1,25.5,27.5,25.5,43.2s-11.4,21.8-25.5,13.7-25.5-27.5-25.5-43.2,11.4-21.8,25.5-13.7Z"/>
  </g>
  <g>
    <polygon class="st18" points="960.6 315.2 1022.5 351 1022.5 369.7 960.6 334 960.6 315.2"/>
    <path class="st18" d="M962.2,295.7c9.7,5.6,17.6,19,17.6,29.8s-7.9,15.1-17.6,9.5-17.6-19-17.6-29.8,7.9-15.1,17.6-9.5Z"/>
    <path class="st18" d="M1022,330.1c9.7,5.6,17.6,19,17.6,29.8s-7.9,15.1-17.6,9.5-17.6-19-17.6-29.8,7.9-15.1,17.6-9.5Z"/>
    <path class="st18" d="M991.7,289.2c14.1,8.1,25.5,27.5,25.5,43.2s-11.4,21.8-25.5,13.7-25.5-27.5-25.5-43.2,11.4-21.8,25.5-13.7Z"/>
  </g>
  <g>
    <polygon class="st18" points="154.6 188.2 216.5 224 216.5 242.7 154.6 207 154.6 188.2"/>
    <path class="st18" d="M156.2,168.7c9.7,5.6,17.6,19,17.6,29.8s-7.9,15.1-17.6,9.5-17.6-19-17.6-29.8,7.9-15.1,17.6-9.5Z"/>
    <path class="st18" d="M216,203.1c9.7,5.6,17.6,19,17.6,29.8s-7.9,15.1-17.6,9.5-17.6-19-17.6-29.8,7.9-15.1,17.6-9.5Z"/>
    <path class="st18" d="M185.7,162.2c14.1,8.1,25.5,27.5,25.5,43.2s-11.4,21.8-25.5,13.7-25.5-27.5-25.5-43.2,11.4-21.8,25.5-13.7Z"/>
  </g>
</svg>